<svg fill="none" height="20" viewBox="0 0 20 20" width="20" xmlns="http://www.w3.org/2000/svg"><g fill="#212121"><path d="m9 2c-2.20914 0-4 1.79086-4 4s1.79086 4 4 4c2.2091 0 4-1.79086 4-4s-1.7909-4-4-4zm-3 4c0-1.65685 1.34315-3 3-3 1.6569 0 3 1.34315 3 3s-1.3431 3-3 3c-1.65685 0-3-1.34315-3-3z"/><path d="m4.00873 11c-1.10558 0-2.00873.8869-2.00873 2 0 1.6912.83281 2.9663 2.13499 3.7966 1.28198.8174 3.01027 1.2034 4.86501 1.2034.41085 0 .8155-.0189 1.2105-.0573-.23752-.2955-.4451-.6161-.61817-.9572-.19435.0096-.39192.0145-.59233.0145-1.73511 0-3.25682-.364-4.32738-1.0466-1.05036-.6697-1.67262-1.6446-1.67262-2.9534 0-.5533.44786-1 1.00873-1h5.59098c.18289-.3578.40379-.6929.65749-1z"/><path d="m19 14.5c0 2.4853-2.0147 4.5-4.5 4.5s-4.5-2.0147-4.5-4.5 2.0147-4.5 4.5-4.5 4.5 2.0147 4.5 4.5zm-6.8532-.354-.0025.0026c-.0469.0474-.0823.1019-.1064.16-.024.0581-.0375.1217-.0379.1884v.003.003c.0004.0667.0139.1303.0379.1884.0244.059.0606.1142.1085.1622l2 2c.1953.1952.5119.1952.7072 0 .1952-.1953.1952-.5119 0-.7072l-1.1465-1.1464h2.7929c.2761 0 .5-.2239.5-.5s-.2239-.5-.5-.5h-2.7929l1.1465-1.1464c.1952-.1953.1952-.5119 0-.7072-.1953-.1952-.5119-.1952-.7072 0z"/></g></svg>