<svg width="20" height="21" viewBox="0 0 20 21" fill="none" xmlns="http://www.w3.org/2000/svg">
<path d="M10 0C15.5228 0 20 4.47715 20 10C20 15.5228 15.5228 20 10 20C8.38171 20 6.81782 19.6146 5.41286 18.888L1.58704 19.9553C0.922123 20.141 0.232581 19.7525 0.0469058 19.0876C-0.0145358 18.8676 -0.014506 18.6349 0.046948 18.4151L1.11461 14.5922C0.386366 13.186 0 11.6203 0 10C0 4.47715 4.47715 0 10 0ZM10 1.5C5.30558 1.5 1.5 5.30558 1.5 10C1.5 11.4696 1.87277 12.8834 2.57303 14.1375L2.72368 14.4072L1.61096 18.3914L5.59755 17.2792L5.86709 17.4295C7.12006 18.1281 8.53218 18.5 10 18.5C14.6944 18.5 18.5 14.6944 18.5 10C18.5 5.30558 14.6944 1.5 10 1.5ZM6.75 11H11.2483C11.6625 11 11.9983 11.3358 11.9983 11.75C11.9983 12.1297 11.7161 12.4435 11.35 12.4932L11.2483 12.5H6.75C6.33579 12.5 6 12.1642 6 11.75C6 11.3703 6.28215 11.0565 6.64823 11.0068L6.75 11H11.2483H6.75ZM6.75 7.5H13.2545C13.6687 7.5 14.0045 7.83579 14.0045 8.25C14.0045 8.6297 13.7223 8.94349 13.3563 8.99315L13.2545 9H6.75C6.33579 9 6 8.66421 6 8.25C6 7.8703 6.28215 7.55651 6.64823 7.50685L6.75 7.5H13.2545H6.75Z" fill="white"/>
</svg>
