<svg height="20" viewBox="0 0 20 20" width="20" xmlns="http://www.w3.org/2000/svg"><path d="m14.5 10c2.4853 0 4.5 2.0147 4.5 4.5s-2.0147 4.5-4.5 4.5-4.5-2.0147-4.5-4.5 2.0147-4.5 4.5-4.5zm-4.2428 1c-.190275.230325-.3621.4764-.51327703.7359891l-.14421297.2640109h-5.59098c-.56087 0-1.00873.4467-1.00873 1 0 1.3088.62226 2.2837 1.67262 2.9534 1.07056.6826 2.59227 1.0466 4.32738 1.0466.20041 0 .39798-.0049.59233-.0145.17307.3411.38065.6617.61817.9572-.395.0384-.79965.0573-1.2105.0573-1.85474 0-3.58303-.386-4.86501-1.2034-1.30218-.8303-2.13499-2.1054-2.13499-3.7966 0-1.0625045.82291147-1.9189054 1.85928963-1.9945647l.14944037-.0054353zm4.2428 1c-.2454222 0-.4496.1769086-.4919429.4101355l-.0080571.0898645v1.5h-1.5c-.2761 0-.5.2239-.5.5 0 .2454222.1769086.4496.4101355.4919429l.0898645.0080571h1.5v1.5c0 .2761.2239.5.5.5.2454222 0 .4496-.1769086.4919429-.4101355l.0080571-.0898645v-1.5h1.5c.2761 0 .5-.2239.5-.5 0-.2454222-.1769086-.4496-.4101355-.4919429l-.0898645-.0080571h-1.5v-1.5c0-.2761-.2239-.5-.5-.5zm-5.5-10c2.2091 0 4 1.79086 4 4s-1.7909 4-4 4c-2.20914 0-4-1.79086-4-4s1.79086-4 4-4zm0 1c-1.65685 0-3 1.34315-3 3s1.34315 3 3 3c1.6569 0 3-1.34315 3-3s-1.3431-3-3-3z" fill="#212121"/></svg>