<svg width="11" height="6" viewBox="0 0 11 6" fill="none" xmlns="http://www.w3.org/2000/svg">
<path d="M0.974082 3.65857C0.886583 3.92025 0.603599 4.06162 0.341778 3.97435C0.0798061 3.88702 -0.061774 3.60386 0.0255498 3.34189C0.0164448 3.37235 0.025922 3.34078 0.025922 3.34078C0.031445 3.32438 0.0373495 3.30811 0.0433852 3.29189C0.053678 3.26424 0.0684715 3.22604 0.0881576 3.17879C0.127494 3.08438 0.186585 2.95334 0.268636 2.79787C0.432295 2.48778 0.69001 2.07538 1.06881 1.66214C1.83412 0.827258 3.08654 0 4.99989 0C6.91324 0 8.16566 0.827258 8.93097 1.66214C9.30977 2.07538 9.56749 2.48778 9.73115 2.79787C9.8132 2.95334 9.87229 3.08438 9.91162 3.17879C9.93131 3.22604 9.94611 3.26424 9.9564 3.29189C9.95947 3.30015 9.9698 3.35247 9.97972 3.40273C9.98874 3.44843 9.99742 3.49242 10 3.5C10 3.5 10.0835 3.83252 9.658 3.97435C9.39658 4.06149 9.11406 3.92068 9.0261 3.65976L9.0257 3.65857L9.0253 3.65748L9.01921 3.64073C9.01315 3.62444 9.00304 3.59819 8.98855 3.56341C8.95953 3.49375 8.91315 3.39042 8.84676 3.26463C8.71354 3.01222 8.50251 2.67462 8.19381 2.33786C7.58412 1.67274 6.58654 1 4.99989 1C3.41324 1 2.41566 1.67274 1.80597 2.33786C1.49727 2.67462 1.28624 3.01222 1.15302 3.26463C1.08664 3.39042 1.04026 3.49375 1.01123 3.56341C0.996741 3.59819 0.986632 3.62444 0.980568 3.64073L0.974082 3.65857ZM5 2C3.89543 2 3 2.89543 3 4C3 5.10457 3.89543 6 5 6C6.10457 6 7 5.10457 7 4C7 2.89543 6.10457 2 5 2ZM4 4C4 3.44772 4.44772 3 5 3C5.55228 3 6 3.44772 6 4C6 4.55228 5.55228 5 5 5C4.44772 5 4 4.55228 4 4Z" fill="#0078D4"/>
</svg>
